<?xml version="1.0" standalone="no"?>
<!DOCTYPE svg PUBLIC "-//W3C//DTD SVG 20010904//EN"
 "http://www.w3.org/TR/2001/REC-SVG-20010904/DTD/svg10.dtd">
<svg version="1.0" xmlns="http://www.w3.org/2000/svg"
 width="939.000000pt" height="940.000000pt" viewBox="0 0 939.000000 940.000000"
 preserveAspectRatio="xMidYMid meet">
<metadata>
Created by potrace 1.16, written by Peter Selinger 2001-2019
</metadata>
<g transform="translate(0.000000,940.000000) scale(0.100000,-0.100000)"
fill="#000000" stroke="none">
<path d="M0 4700 l0 -4700 4695 0 4695 0 0 4700 0 4700 -4695 0 -4695 0 0
-4700z m5143 3895 c567 -58 1108 -260 1624 -606 176 -118 429 -322 419 -337
-2 -4 -530 -7 -1173 -7 l-1168 0 -5 353 c-5 378 -4 371 -56 372 -36 0 -57 -25
-63 -75 l-6 -47 -70 -31 c-67 -31 -75 -32 -197 -31 l-128 0 0 -51 0 -52 -120
-43 c-66 -23 -120 -46 -120 -50 0 -4 54 -23 120 -41 l120 -33 0 -43 c0 -37 3
-43 26 -49 59 -15 187 2 269 35 44 18 86 35 93 38 10 4 12 -21 10 -121 l-3
-126 -1177 -5 c-927 -4 -1178 -2 -1177 8 2 34 401 339 589 451 680 403 1423
569 2193 491z m-423 -1129 l0 -104 -95 -33 -95 -32 0 -58 0 -57 -44 -15 c-25
-8 -47 -13 -50 -9 -3 3 -6 27 -6 54 0 55 -5 57 -85 29 l-50 -18 -5 -58 c-5
-57 -6 -58 -44 -71 -21 -8 -43 -11 -48 -8 -5 4 -8 36 -6 73 l3 66 -71 3 -72 3
-7 -235 -7 -235 -32 -10 c-77 -24 -234 -70 -258 -75 -27 -6 -28 -5 -28 37 l0
44 93 27 c50 15 98 30 105 32 8 2 12 15 10 31 -3 26 -6 28 -45 28 -24 -1 -103
-2 -176 -3 l-134 -2 -6 -131 c-3 -73 -9 -135 -14 -140 -9 -9 -239 -59 -272
-59 -22 0 -25 -9 -36 -92 -6 -47 -6 -47 -50 -54 -25 -3 -57 -3 -71 0 -15 4
-102 4 -194 0 l-167 -7 -17 -96 c-10 -53 -30 -163 -45 -246 l-27 -150 -707 -3
c-574 -2 -707 0 -707 11 0 23 86 269 130 372 50 117 92 204 163 332 l50 93
936 2 936 3 0 85 0 85 -879 0 c-633 0 -880 3 -883 11 -2 6 25 51 60 100 l64
89 1062 3 1061 2 0 40 0 40 -1025 0 c-813 0 -1025 3 -1025 13 0 6 12 26 28 42
15 17 54 62 86 100 33 39 100 112 150 163 l91 92 1227 0 1228 0 0 -104z m2688
-20 c123 -128 232 -257 232 -275 0 -8 -309 -11 -1010 -11 l-1010 0 0 -40 0
-40 1044 0 1044 0 55 -72 c80 -106 91 -125 75 -130 -7 -3 -398 -3 -868 -1
-470 3 -863 1 -872 -2 -15 -6 -18 -20 -18 -91 l0 -84 934 0 935 0 29 -52 c66
-117 132 -249 180 -363 57 -135 132 -350 132 -377 0 -17 -29 -18 -588 -18
-324 0 -636 -3 -693 -6 -57 -3 -110 -1 -116 3 -15 11 -23 52 -57 288 -15 99
-29 190 -32 203 l-5 23 -247 -1 -247 -1 -3 38 c-5 77 -12 103 -30 103 -9 -1
-74 9 -143 22 l-127 22 -6 59 c-3 33 -6 98 -6 143 l0 84 -180 0 -180 0 0 -25
c0 -21 7 -26 58 -40 154 -44 152 -42 152 -87 0 -40 0 -41 -32 -35 -43 8 -259
66 -270 73 -4 3 -8 36 -8 73 0 37 -3 143 -7 235 l-6 167 -71 -3 -71 -3 -3 -72
-3 -72 -32 6 c-49 9 -57 20 -57 82 l0 57 -67 22 c-36 11 -70 19 -75 16 -4 -3
-8 -30 -8 -61 0 -54 -1 -55 -25 -49 -73 18 -75 21 -75 85 l0 60 -92 30 -93 29
-3 106 -3 106 1224 0 1225 0 120 -124z m-2639 -328 c2 -166 11 -154 -170 -205
-84 -24 -203 -57 -264 -74 -60 -16 -118 -32 -127 -35 -16 -5 -18 4 -18 99 l0
104 153 45 c83 25 176 52 206 59 30 8 55 20 58 29 10 34 22 45 69 61 94 32 92
34 93 -83z m-14 -736 c-2 -3 -93 -32 -202 -65 -109 -33 -225 -68 -258 -78 -33
-10 -140 -42 -238 -71 l-177 -52 -16 22 c-23 34 -71 55 -108 48 -18 -4 -47
-22 -66 -41 -33 -34 -35 -40 -40 -122 -5 -94 -7 -97 -81 -122 -25 -9 -27 -14
-39 -128 -22 -206 18 -167 -312 -303 -157 -65 -292 -121 -300 -125 -25 -14
-193 -118 -256 -158 -34 -22 -61 -42 -58 -44 5 -5 285 84 399 126 42 16 77 25
77 21 0 -4 -42 -39 -92 -78 -262 -198 -411 -312 -488 -374 l-85 -68 -252 0
c-139 0 -253 3 -252 8 0 4 22 25 49 47 26 22 111 98 189 168 155 141 144 124
182 301 10 50 21 101 24 114 5 22 7 22 193 22 l187 1 160 125 c88 69 174 136
191 150 25 19 41 24 74 22 41 -3 44 -1 51 27 4 17 37 154 74 305 36 151 70
291 76 311 9 35 12 37 86 59 113 32 350 104 573 172 215 66 423 128 515 152
33 9 96 27 140 40 l80 24 3 -216 c1 -118 0 -217 -3 -220z m60 -94 c25 -11 25
-12 25 -138 0 -70 -3 -168 -7 -219 -6 -91 -6 -91 -32 -89 l-26 3 -5 -123 c-3
-68 -3 -125 -1 -127 2 -2 21 5 42 15 l38 20 143 -113 c255 -200 417 -331 414
-334 -1 -2 -38 13 -82 33 -43 19 -92 42 -109 49 -16 8 -100 47 -185 88 -85 40
-176 81 -201 91 l-46 18 -148 -71 c-81 -39 -149 -71 -151 -71 -1 0 -40 -17
-86 -39 -439 -205 -540 -251 -549 -251 -5 0 -40 -28 -77 -63 -37 -34 -89 -80
-117 -102 -27 -22 -56 -45 -63 -52 -7 -7 -32 -28 -56 -48 -43 -35 -63 -45 -50
-24 4 7 -2 10 -17 8 -13 -1 -37 3 -52 9 -36 15 -37 15 -37 -4 0 -14 -2 -14
-16 1 -9 9 -23 14 -30 11 -39 -15 15 43 221 234 55 51 460 438 522 498 21 21
16 23 -24 7 -21 -8 -101 -37 -178 -65 -77 -29 -167 -63 -200 -77 -101 -42
-343 -182 -273 -158 58 19 253 75 265 75 15 0 -48 -56 -207 -182 -52 -42 -165
-132 -250 -202 l-155 -126 -187 0 c-104 0 -188 1 -188 3 0 2 30 28 67 58 37
30 185 151 328 269 490 405 526 431 630 470 47 18 88 37 91 42 4 6 22 103 41
216 18 114 37 210 41 213 11 11 83 31 88 26 3 -3 -9 -97 -27 -211 -18 -113
-30 -208 -26 -212 4 -4 34 1 66 11 68 20 58 -8 96 250 33 227 28 211 75 223
22 5 42 7 43 3 2 -3 -6 -76 -18 -161 -21 -147 -34 -270 -29 -270 1 0 31 9 67
20 42 13 68 27 71 38 2 9 14 100 26 202 12 102 25 194 30 205 6 16 36 29 140
58 73 21 134 36 137 34 4 -4 -12 -155 -47 -437 -5 -41 -7 -76 -5 -78 3 -3 165
76 165 81 3 35 30 439 30 455 0 25 16 28 55 10z m-1675 -45 c0 -15 -41 -194
-81 -353 -7 -27 -23 -46 -76 -84 -160 -116 -193 -138 -193 -123 0 9 13 84 29
169 16 84 39 207 51 273 12 66 24 123 26 127 3 5 59 8 125 8 107 0 119 -2 119
-17z m2470 -588 c41 -33 136 -110 210 -170 148 -120 310 -257 378 -320 24 -22
48 -41 53 -43 5 -2 9 -8 9 -13 0 -11 -47 -12 -54 0 -3 4 -52 41 -108 82 -152
108 -493 374 -591 460 l-38 34 21 23 c25 26 21 27 120 -53z m-2975 8 c-15
-100 1 -93 -210 -93 -151 0 -185 -3 -185 -14 0 -8 -6 -16 -12 -18 -27 -10
-1047 -8 -1053 2 -3 5 2 46 11 90 l17 80 720 0 719 0 -7 -47z m5729 -18 c9
-35 16 -75 16 -88 l0 -25 -517 4 c-447 3 -518 6 -526 19 -7 13 -40 15 -206 15
-224 0 -206 -7 -217 86 l-7 54 720 0 721 0 16 -65z m-1734 -453 c226 -182 429
-351 449 -376 8 -9 12 -19 9 -21 -9 -9 -112 50 -189 107 -360 266 -475 354
-512 388 -11 10 21 60 37 60 6 0 99 -71 206 -158z m-1744 72 c180 -84 392
-185 734 -351 107 -52 384 -182 615 -290 231 -108 426 -201 432 -207 10 -9 -2
-36 -58 -126 -39 -63 -75 -119 -79 -124 -5 -4 -37 5 -72 22 -350 167 -677 326
-1612 788 -28 13 -55 24 -62 24 -6 0 -204 -95 -440 -211 -236 -116 -501 -246
-589 -289 -88 -43 -272 -132 -409 -199 -283 -138 -312 -152 -320 -143 -8 8 -6
314 2 332 4 8 13 16 19 17 7 2 75 33 150 69 76 36 185 85 243 109 58 24 188
82 290 130 102 48 219 103 260 122 113 52 258 121 535 253 138 65 253 119 256
119 3 1 51 -20 105 -45z m-3266 -1189 l0 -205 -201 2 -202 3 -104 190 c-58
105 -107 196 -110 203 -4 9 61 12 306 12 l311 0 0 -205z m1145 -855 l0 -1055
630 -3 630 -2 -3 -447 c-2 -246 -6 -450 -8 -453 -3 -2 -478 -5 -1057 -5
l-1052 0 -3 1513 -2 1512 432 -2 433 -3 0 -1055z m4897 8 l3 -1053 75 -5 75
-5 0 -165 c0 -91 -2 -239 -5 -330 l-5 -165 -70 -5 -70 -5 -5 -140 -5 -140 -95
-57 c-52 -31 -106 -63 -120 -70 -47 -25 -225 -125 -360 -203 -185 -107 -234
-135 -242 -135 -5 0 -8 169 -8 375 l0 375 -695 0 -695 0 0 300 0 301 173 257
c268 396 325 481 583 857 132 193 341 500 464 683 124 184 233 345 243 358
l18 24 370 0 369 0 2 -1052z m898 1041 c0 -6 -30 -62 -67 -124 -38 -62 -88
-149 -113 -192 l-45 -78 -197 -3 -198 -2 0 205 0 205 310 0 c215 0 310 -3 310
-11z m-3380 -1693 l0 -1454 -107 -62 c-60 -34 -124 -73 -143 -85 -20 -13 -58
-34 -85 -49 -28 -14 -58 -32 -67 -39 -14 -9 -22 -9 -40 2 -13 8 -103 59 -200
112 -97 54 -195 110 -217 124 l-41 25 0 985 c0 542 -2 985 -4 985 -2 0 -100
-47 -217 -105 -118 -58 -217 -105 -221 -105 -5 0 -8 109 -8 243 l0 242 28 14
c15 7 116 55 224 106 202 96 521 249 758 363 173 83 323 152 333 152 4 0 7
-654 7 -1454z m-690 1432 c0 -8 -89 -53 -304 -152 l-77 -36 -545 0 -544 0 0
93 c0 52 3 97 7 101 11 11 1463 5 1463 -6z m1914 3 c4 -5 -22 -50 -56 -100
l-61 -91 -429 0 -428 0 0 93 c0 52 3 97 7 100 10 11 961 8 967 -2z m-4784
-410 c0 -62 -4 -90 -12 -93 -7 -2 -125 -2 -261 0 l-248 4 -39 79 c-22 43 -40
83 -40 89 0 7 102 10 300 10 l300 0 0 -89z m6930 84 c0 -10 -80 -164 -87 -168
-5 -3 -123 -6 -263 -8 l-255 -4 -3 93 -3 92 306 0 c168 0 305 -2 305 -5z
m-5150 -210 c19 -60 26 -65 96 -65 36 0 64 -4 64 -10 0 -5 -3 -10 -7 -10 -5 0
-28 -18 -52 -39 l-44 -38 16 -42 c9 -23 17 -50 17 -61 0 -20 -1 -20 -32 -4
-18 9 -43 25 -54 36 -22 19 -22 19 -79 -17 -31 -20 -59 -34 -63 -31 -3 4 2 32
12 63 l18 57 -38 30 c-88 71 -88 65 -6 66 66 0 73 2 81 23 42 110 49 114 71
42z m2403 -5 l22 -55 68 -3 c37 -2 67 -7 67 -11 0 -5 -22 -24 -50 -42 -27 -19
-50 -41 -50 -50 0 -8 7 -37 16 -63 9 -26 14 -50 10 -53 -3 -3 -30 10 -61 30
l-55 37 -54 -35 c-29 -19 -56 -32 -59 -29 -3 3 3 31 14 62 l20 57 -24 20 c-12
11 -39 32 -58 47 l-34 27 45 2 c25 1 58 2 74 3 26 1 32 7 50 59 12 31 25 56
29 54 5 -1 18 -27 30 -57z m-4183 -415 l0 -84 -176 -3 c-97 -2 -179 -1 -184 2
-9 6 -65 116 -74 148 l-7 22 220 0 221 0 0 -85z m6760 69 c0 -9 -17 -48 -37
-85 l-37 -69 -183 0 -183 0 0 85 0 85 220 0 c197 0 220 -2 220 -16z m-6760
-423 l0 -90 -106 -3 c-58 -2 -110 -1 -114 2 -7 5 -90 165 -90 175 0 3 70 5
155 5 l155 0 0 -89z m6625 67 c-4 -13 -23 -53 -42 -90 l-35 -68 -104 0 c-57 0
-107 -1 -111 -2 -5 -2 -9 39 -11 90 l-3 92 156 0 156 0 -6 -22z m-6625 -882
c0 -294 -3 -537 -7 -539 -5 -3 -40 14 -80 37 -39 22 -85 49 -102 58 l-31 17 0
474 c0 260 3 477 7 480 3 4 53 7 110 7 l103 0 0 -534z m6538 52 l-3 -482 -104
-58 c-58 -32 -106 -58 -108 -58 -6 0 -3 1067 4 1073 3 4 53 7 110 7 l103 0 -2
-482z m-1670 -1051 l-3 -92 -476 -5 -476 -5 -59 -36 c-32 -20 -120 -71 -194
-114 -74 -43 -179 -105 -233 -137 -54 -32 -100 -58 -102 -58 -3 0 -35 -18 -71
-41 -109 -66 -91 -69 -275 33 -90 50 -240 132 -334 183 -93 50 -201 110 -240
131 l-70 39 -1025 5 -1025 5 -3 93 -3 92 1052 0 1052 0 126 -66 c69 -37 205
-110 301 -164 96 -53 211 -116 256 -140 l81 -43 119 70 c186 110 566 325 595
337 18 8 178 10 518 8 l492 -2 -3 -93z m1179 -24 c50 -32 63 -58 63 -124 0
-44 -4 -55 -38 -91 -35 -37 -45 -42 -93 -45 -117 -9 -189 92 -141 200 38 86
129 112 209 60z"/>
<path d="M2301 6552 c-12 -23 -98 -72 -126 -72 -32 0 -13 -17 34 -29 28 -7 60
-24 75 -40 l27 -28 29 27 c16 15 50 33 75 40 25 7 45 16 45 20 0 4 -20 13 -44
20 -44 12 -64 26 -90 64 -13 19 -14 19 -25 -2z"/>
<path d="M2299 6185 c-14 -14 -51 -36 -83 -49 l-59 -24 57 -18 c35 -11 67 -29
81 -45 l22 -27 22 28 c13 18 38 34 64 41 60 18 65 26 21 38 -47 13 -83 37 -92
62 -7 18 -9 17 -33 -6z"/>
<path d="M7386 6591 c-3 -5 -21 -55 -41 -111 -19 -57 -41 -111 -50 -120 -8 -9
-34 -23 -58 -30 -97 -29 -208 -73 -200 -80 10 -9 77 -32 170 -59 85 -25 96
-38 142 -165 36 -102 46 -122 53 -110 3 5 16 41 28 79 13 39 33 93 45 121 l23
51 131 42 c72 23 131 43 131 45 0 2 -55 23 -122 46 -67 24 -132 53 -143 64
-11 12 -36 69 -55 129 -32 101 -42 119 -54 98z"/>
<path d="M6649 2755 c-95 -141 -217 -317 -269 -393 -52 -75 -103 -149 -113
-164 l-17 -28 290 0 290 0 0 404 c0 222 3 411 6 420 21 55 -33 -15 -187 -239z"/>
<path d="M7545 846 c-46 -20 -59 -42 -59 -100 1 -55 17 -96 37 -96 9 0 11 24
9 90 l-4 90 34 0 c18 0 44 -3 57 -7 21 -5 23 -10 17 -53 -6 -47 8 -110 25
-110 13 0 39 63 39 92 0 41 -36 86 -77 97 -46 13 -41 13 -78 -3z"/>
</g>
</svg>
